<svg width="28" height="32" viewBox="0 0 28 32" fill="none" xmlns="http://www.w3.org/2000/svg">
<path fill-rule="evenodd" clip-rule="evenodd" d="M16.8946 10.2296L23.603 15.5045C23.7831 15.6536 27.9928 19.2671 26.9947 24.3409C26.9497 24.5867 26.6796 26.0023 25.6291 27.5073C24.5935 28.99 22.59 30.9569 17.3899 31.6051L14.5984 32L18.0277 29.5264L18.0282 29.526C18.0827 29.4856 20.9921 27.3239 21.0967 24.4973C21.1568 22.8806 20.2713 21.2861 18.4629 19.7513L12.1672 14.7595C11.732 14.4466 8.44529 11.9506 9.17316 7.18976C9.20317 6.98114 10.0061 1.92969 16.1367 0C16.1142 0.00745052 14.3583 2.8312 14.3283 5.30477C14.3058 6.30314 14.5534 7.35367 15.2663 8.45634C15.7015 9.13434 16.2568 9.73038 16.8946 10.2296ZM8.12209 17.6552C8.08289 17.8019 8.85688 20.523 9.87981 22.069C11.4 24.3664 15.3686 26.4827 15.3686 26.4827H0C0.00694786 26.4782 0.038027 26.4647 0.0906152 26.4419C0.878808 26.1003 6.49882 23.6643 8.12209 17.6552Z" fill="#21D37E"/>
</svg>
