<svg xmlns="http://www.w3.org/2000/svg" width="15" height="15" viewBox="0 0 15 15"><path fill-rule="evenodd" clip-rule="evenodd" d="M2.40447 11.9793C2.34568 11.9911 2.28689 11.9969 2.2281 11.9969C2.19512 11.9969 2.16123 11.9951 2.12798 11.9919C2.10192 11.9894 2.07626 11.9861 2.05173 11.9823C1.53145 11.8827 1.19048 11.3846 1.28748 10.866L1.93122 7.46446C1.96649 7.27695 2.06055 7.10116 2.19577 6.96639L8.65373 0.526615C9.12111 0.0607712 9.81482 -0.106229 10.5644 0.0666309C11.164 0.204333 11.7637 0.550054 12.2604 1.0452C12.7543 1.53741 13.1041 2.13802 13.2422 2.72985C13.4156 3.47403 13.2481 4.1684 12.7807 4.63424L6.31981 11.0711C6.1846 11.2059 6.00823 11.2996 5.82011 11.3348L2.40447 11.9793ZM11.3933 3.31875C11.408 3.18398 11.2992 2.78552 10.9054 2.39292C10.5115 2.00032 10.1117 1.89485 9.97649 1.9095L9.41799 2.46617L10.8348 3.87542L11.3933 3.31875ZM8.0629 3.81389L3.75661 8.1061L3.4274 9.84642L5.17343 9.51828L9.47972 5.22607L8.0629 3.81389ZM0.95826 13.0897H14.0388C14.5679 13.0897 14.9971 13.5175 15 14.0449C15 14.5722 14.5708 15 14.0417 15H0.95826C0.429159 15 0 14.5722 0 14.0449C0 13.5175 0.429159 13.0897 0.95826 13.0897Z"></path></svg>