<svg xmlns="http://www.w3.org/2000/svg" width="50" height="51" viewBox="0 0 50 51"><path d="M38.4611 27.2971C38.1422 30.3866 36.7723 33.2732 34.5802 35.475C32.3881 37.6767 29.5066 39.0603 26.4167 39.3946C26.3544 39.3939 26.2927 39.4056 26.2351 39.429C26.1774 39.4525 26.1251 39.4872 26.0811 39.5312C26.0371 39.5752 26.0023 39.6275 25.9789 39.6851C25.9554 39.7427 25.9437 39.8044 25.9444 39.8665V49.9654C25.9444 50.2157 25.8449 50.4557 25.6678 50.6327C25.4907 50.8097 25.2505 50.9092 25 50.9092C24.7495 50.9092 24.5093 50.8097 24.3322 50.6327C24.1551 50.4557 24.0556 50.2157 24.0556 49.9654V46.3011C24.0466 46.179 23.9939 46.0641 23.9072 45.9775C23.8205 45.8908 23.7056 45.8382 23.5833 45.8292C19.3828 45.4895 15.3985 43.8267 12.2039 41.0801C9.0092 38.3336 6.76895 34.6449 5.80556 30.545C5.76969 30.4235 5.75867 30.2961 5.77312 30.1702C5.78758 30.0444 5.82723 29.9228 5.88971 29.8126C5.95219 29.7024 6.03622 29.6059 6.1368 29.5289C6.23738 29.4518 6.35245 29.3958 6.47515 29.3641C6.59786 29.3324 6.72569 29.3257 6.85103 29.3445C6.97637 29.3632 7.09665 29.4069 7.20472 29.4731C7.31279 29.5392 7.40644 29.6265 7.48007 29.7295C7.55371 29.8326 7.60583 29.9494 7.63333 30.0731C8.48981 33.7532 10.4869 37.0692 13.34 39.5485C16.193 42.0278 19.7564 43.5439 23.5222 43.8805C23.6444 43.9416 23.7611 43.8805 23.8778 43.7639C23.9395 43.7291 23.9893 43.6767 24.021 43.6134C24.0527 43.5501 24.0647 43.4788 24.0556 43.4086V39.8665C24.0563 39.8044 24.0446 39.7427 24.0211 39.6851C23.9977 39.6275 23.9629 39.5752 23.9189 39.5312C23.8749 39.4872 23.8226 39.4525 23.7649 39.429C23.7073 39.4056 23.6456 39.3939 23.5833 39.3946C20.5082 39.0523 17.6386 37.683 15.4389 35.5083C13.2397 33.2995 11.8667 30.4025 11.55 27.3027C11.532 27.1893 11.475 27.0856 11.3888 27.0097C11.3026 26.9337 11.1926 26.89 11.0778 26.8863H0.972222C0.714373 26.8863 0.467084 26.7839 0.284757 26.6017C0.10243 26.4195 0 26.1724 0 25.9147C0 25.6571 0.10243 25.4099 0.284757 25.2277C0.467084 25.0455 0.714373 24.9432 0.972222 24.9432H4.81111C4.92566 24.9384 5.03509 24.8944 5.12106 24.8186C5.20704 24.7428 5.26432 24.6398 5.28333 24.5268C5.53543 20.3353 7.09381 16.3278 9.73998 13.0661C12.3862 9.80441 15.9874 7.45207 20.0389 6.33889C20.2842 6.29235 20.5381 6.34139 20.7484 6.47595C20.9587 6.61051 21.1096 6.82039 21.17 7.06255C21.2304 7.3047 21.1958 7.56077 21.0733 7.77824C20.9507 7.99571 20.7496 8.15809 20.5111 8.23208C16.8865 9.20883 13.6575 11.2923 11.2751 14.1917C8.89271 17.0911 7.4758 20.6616 7.22222 24.4046C7.20656 24.4736 7.20718 24.5452 7.22404 24.6139C7.2409 24.6826 7.27354 24.7464 7.31937 24.8003C7.36519 24.8541 7.42295 24.8966 7.48805 24.9243C7.55316 24.952 7.62382 24.9642 7.69445 24.9598H11.0556C11.1704 24.9561 11.2804 24.9125 11.3666 24.8365C11.4528 24.7605 11.5098 24.6569 11.5278 24.5434C11.8424 21.4483 13.2117 18.5552 15.4065 16.3487C17.6012 14.1423 20.4881 12.7566 23.5833 12.4237C23.6456 12.4245 23.7073 12.4128 23.7649 12.3893C23.8226 12.3659 23.8749 12.3311 23.9189 12.2872C23.9629 12.2432 23.9977 12.1909 24.0211 12.1333C24.0446 12.0757 24.0563 12.014 24.0556 11.9518V1.853C24.0556 1.60268 24.1551 1.36262 24.3322 1.18562C24.5093 1.00862 24.7495 0.90918 25 0.90918C25.2505 0.90918 25.4907 1.00862 25.6678 1.18562C25.8449 1.36262 25.9444 1.60268 25.9444 1.853V13.3065C25.9508 13.4401 25.9291 13.5736 25.8808 13.6984C25.8325 13.8232 25.7587 13.9365 25.664 14.0311C25.5694 14.1257 25.4559 14.1995 25.3311 14.2478C25.2062 14.296 25.0726 14.3177 24.9389 14.3114C14.6667 14.3114 9.53333 26.8808 16.7944 34.1426C24.0556 41.4044 36.45 36.2079 36.6278 25.9092C36.6263 25.7848 36.6497 25.6614 36.6966 25.5462C36.7436 25.4311 36.8131 25.3264 36.9011 25.2385C36.9891 25.1505 37.0938 25.0811 37.209 25.0342C37.3243 24.9873 37.4478 24.9639 37.5722 24.9654H49.0278C49.2856 24.9654 49.5329 25.0677 49.7152 25.2499C49.8976 25.4321 50 25.6793 50 25.9369C50 26.1946 49.8976 26.4417 49.7152 26.6239C49.5329 26.8062 49.2856 26.9085 49.0278 26.9085H45.25C45.1328 26.9038 45.0183 26.9445 44.9303 27.022C44.8423 27.0996 44.7877 27.2081 44.7778 27.3249C44.4712 31.5425 42.839 35.5555 40.1143 38.7908C37.3896 42.0262 33.7116 44.3186 29.6056 45.3407C28.3667 45.6349 27.9389 43.7473 29.1889 43.453C32.8558 42.5419 36.1443 40.5041 38.5911 37.6267C41.0379 34.7493 42.5197 31.1772 42.8278 27.4137C42.8434 27.3448 42.8428 27.2731 42.826 27.2045C42.8091 27.1358 42.7765 27.072 42.7306 27.0181C42.6848 26.9642 42.6271 26.9218 42.562 26.8941C42.4968 26.8664 42.4262 26.8542 42.3556 26.8585H38.9333C38.8185 26.8623 38.7085 26.9059 38.6223 26.9819C38.5361 27.0579 38.4791 27.1615 38.4611 27.2749V27.2971ZM46.1111 11.5965L39.2833 18.3809C39.1165 18.5618 38.8849 18.6696 38.6389 18.6807H34.0889C33.9647 18.6915 33.8448 18.7315 33.7389 18.7973L25.65 26.9418C25.4681 27.1116 25.2274 27.2043 24.9785 27.2004C24.7296 27.1964 24.492 27.0961 24.3156 26.9206C24.1393 26.745 24.0379 26.508 24.0329 26.2593C24.0279 26.0106 24.1197 25.7696 24.2889 25.5872L32.3778 17.4371C32.4322 17.4098 32.4778 17.3677 32.5092 17.3156C32.5407 17.2635 32.5568 17.2036 32.5556 17.1428V12.5847C32.5544 12.4534 32.5799 12.3232 32.6305 12.202C32.6811 12.0809 32.7558 11.9712 32.85 11.8796L39.6389 5.10083C39.77 4.9592 39.9407 4.86031 40.1288 4.81703C40.317 4.77375 40.5138 4.7881 40.6937 4.85819C40.8735 4.92829 41.0281 5.0509 41.1372 5.21004C41.2464 5.36917 41.305 5.55747 41.3056 5.7504V9.47014C41.3134 9.59272 41.3657 9.70825 41.4526 9.7951C41.5395 9.88196 41.6551 9.9342 41.7778 9.94205H45.4389C45.6342 9.93693 45.8265 9.99072 45.9907 10.0964C46.1549 10.2021 46.2835 10.3548 46.3597 10.5345C46.4358 10.7143 46.456 10.9128 46.4176 11.1042C46.3792 11.2956 46.284 11.4711 46.1444 11.6076L46.1111 11.5965ZM38.3333 16.5932L42.2889 12.6402C42.3576 12.5768 42.4062 12.4946 42.4286 12.4038C42.451 12.313 42.4462 12.2176 42.4148 12.1295C42.3835 12.0414 42.3269 11.9645 42.2522 11.9082C42.1774 11.852 42.0878 11.8189 41.9944 11.813H40.3278C40.0698 11.819 39.8197 11.7235 39.6316 11.5469C39.4435 11.3703 39.3324 11.1269 39.3222 10.8692V9.25362C39.3218 9.158 39.2932 9.06462 39.2402 8.98506C39.1871 8.90549 39.1119 8.84323 39.0237 8.80599C38.9356 8.76875 38.8385 8.75818 38.7444 8.77557C38.6503 8.79297 38.5634 8.83757 38.4944 8.90385L34.6056 12.8568C34.5017 12.9472 34.4379 13.0749 34.4278 13.2121V16.2823C34.427 16.3444 34.4387 16.4061 34.4622 16.4637C34.4857 16.5213 34.5204 16.5736 34.5644 16.6176C34.6084 16.6616 34.6608 16.6963 34.7184 16.7198C34.776 16.7432 34.8378 16.7549 34.9 16.7542H38.0278C38.15 16.7542 38.2667 16.7542 38.3222 16.632L38.3333 16.5932ZM33.0222 25.9203C33.0244 27.5077 32.5553 29.06 31.6743 30.3809C30.7933 31.7018 29.54 32.7317 28.073 33.3405C26.606 33.9492 24.9912 34.1094 23.4331 33.8006C21.875 33.4919 20.4435 32.7281 19.3199 31.6061C18.1963 30.484 17.4311 29.054 17.1211 27.4972C16.811 25.9403 16.9702 24.3265 17.5783 22.8601C18.1864 21.3936 19.2162 20.1404 20.5373 19.2591C21.8585 18.3777 23.4115 17.9079 25 17.909C25.2387 17.9272 25.4617 18.0349 25.6244 18.2104C25.787 18.3859 25.8774 18.6163 25.8774 18.8555C25.8774 19.0948 25.787 19.3252 25.6244 19.5007C25.4617 19.6762 25.2387 19.7839 25 19.8021C23.3792 19.8021 21.8248 20.4456 20.6788 21.5908C19.5327 22.7361 18.8889 24.2895 18.8889 25.9092C18.8889 27.5289 19.5327 29.0822 20.6788 30.2275C21.8248 31.3728 23.3792 32.0162 25 32.0162C28.5444 32.0162 30.9056 29.3624 31.0778 25.9092C31.0722 25.7752 31.0943 25.6416 31.1427 25.5165C31.1911 25.3915 31.2647 25.2777 31.3589 25.1823C31.4531 25.0869 31.566 25.0119 31.6905 24.962C31.815 24.9121 31.9485 24.8883 32.0826 24.8921C32.2167 24.8959 32.3485 24.9272 32.47 24.9842C32.5914 25.0411 32.6999 25.1224 32.7885 25.223C32.8772 25.3236 32.9442 25.4414 32.9853 25.569C33.0265 25.6966 33.0409 25.8313 33.0278 25.9647L33.0222 25.9203Z"></path></svg>