<svg xmlns="http://www.w3.org/2000/svg" width="50" height="51" viewBox="0 0 50 51"><path fill-rule="evenodd" clip-rule="evenodd" d="M32.028 0.90918C36.814 0.90918 41.332 2.76885 44.7014 6.14306C51.7656 13.2366 51.7656 24.7586 44.7014 31.8331C41.2554 35.2839 36.6991 37.1819 31.8557 37.1819C27.8737 37.1819 24.0832 35.8973 20.9053 33.4626L19.5652 34.8045C20.0247 35.8014 19.8332 36.9708 19.0675 37.7379L6.68126 50.1419C6.2027 50.6211 5.55179 50.8896 4.86259 50.8896C4.17339 50.8896 3.52253 50.6211 3.04392 50.1419L0.746635 47.8605C-0.248878 46.8636 -0.248878 45.2147 0.746635 44.2178L13.1711 31.8138C13.6497 31.3346 14.2814 31.0853 14.9514 31.0853C15.3343 31.0853 15.7364 31.1812 16.1001 31.3537L17.4402 30.0693C16.0618 28.2671 15.1812 26.6183 14.607 24.7202H5.53264H5.24548C5.21407 24.7202 5.18593 24.7171 5.15969 24.7133L5.11202 24.706C5.09221 24.7033 5.07312 24.7011 5.05403 24.7011H4.95831C2.18242 24.4135 0 22.0746 0 19.2564C0 16.2464 2.46958 13.7926 5.5135 13.7926H14.5878C15.4492 10.9359 17 8.34785 19.0484 6.29642C22.5134 2.82633 27.1271 0.90918 32.028 0.90918ZM5.81981 49.2792L18.206 36.8752C18.7229 36.3383 18.7229 35.4947 18.1868 34.9771L15.9087 32.6765C15.6406 32.4081 15.3152 32.2738 14.9514 32.2738C14.5878 32.2738 14.2432 32.4272 13.9943 32.6765L1.60808 45.0805C1.09124 45.5983 1.09124 46.4609 1.60808 46.9785L3.90536 49.2792C4.15424 49.5284 4.49884 49.6625 4.86259 49.6625C5.22633 49.6625 5.57093 49.5284 5.81981 49.2792ZM5.28376 14.9427C3.02477 15.0579 1.22525 16.9557 1.22525 19.2564C1.22525 21.6336 3.13964 23.5701 5.49435 23.5701H26.9357C29.3096 23.5701 31.2239 21.6336 31.2239 19.2564C31.2239 16.9557 29.4245 15.0579 27.1654 14.9427H26.9357H5.49435H5.28376ZM19.0292 31.8522C18.7611 31.5838 18.4931 31.2962 18.1868 30.932L17.0383 32.0821L18.7994 33.8459L19.9481 32.6958C19.5844 32.389 19.2972 32.1205 19.0292 31.8522ZM31.894 2.17448C27.376 2.17448 23.126 3.93827 19.9098 7.15912C18.1677 8.90382 16.751 11.2618 15.8513 13.7733H18.7229C19.4886 11.9329 20.5415 10.3032 21.786 9.05718C24.5044 6.33482 28.1417 4.82028 31.9897 4.82028C35.7611 4.82028 39.2836 6.27734 41.9255 8.92291C47.4772 14.4826 47.4772 23.5508 41.9255 29.1107C39.2262 31.8138 35.627 33.3092 31.7983 33.3092C28.0078 33.3092 24.447 31.8331 21.786 29.1682C20.3693 27.7495 19.393 26.3306 18.7229 24.7011H15.8513C16.6554 27.1933 17.8614 29.1489 19.7759 31.066C22.9537 34.2485 27.1271 35.9932 31.5685 35.9932C36.0674 35.9932 40.3365 34.2103 43.591 30.9701L43.7633 30.8168C46.8838 27.6343 48.6068 23.4549 48.6259 19.0072C48.6451 14.5019 46.903 10.2841 43.725 7.08233C40.5662 3.91918 36.3545 2.17448 31.894 2.17448ZM31.9323 6.08558C28.4289 6.08558 25.1361 7.44676 22.6665 9.93897C21.5945 11.0125 20.7139 12.3162 20.0821 13.7926H26.9549C29.9987 13.7926 32.4683 16.2464 32.4683 19.2564C32.4683 22.0937 30.2859 24.4328 27.51 24.7011H27.4334C27.376 24.7202 27.2995 24.7202 27.242 24.7202H26.9549H20.0821C20.7713 26.3115 21.7285 27.3469 22.6665 28.2862C25.0978 30.7209 28.3332 32.0055 31.7792 32.0055C35.2824 32.0055 38.5753 30.6827 41.064 28.1903C46.118 23.1291 46.118 14.9236 41.064 9.8624C38.6327 7.42745 35.3782 6.08558 31.9323 6.08558ZM31.1856 43.2208C31.4537 43.1058 31.6068 42.7991 31.5302 42.5115C31.3963 42.013 31.2048 41.5145 30.9176 41.016C30.7645 40.7477 30.4391 40.6327 30.171 40.7477C29.7308 40.9203 29.1947 40.8051 28.8692 40.4793C28.5246 40.1342 28.4289 39.6357 28.5821 39.1756C28.697 38.888 28.5629 38.5813 28.3141 38.4279C27.8355 38.1596 27.3186 37.9487 26.8208 37.8145C26.5337 37.7377 26.2274 37.891 26.0933 38.1596C25.9019 38.6006 25.4616 38.888 24.983 38.888C24.5044 38.888 24.0641 38.6006 23.8727 38.1596C23.7578 37.891 23.4323 37.7377 23.1452 37.8145C22.9198 37.879 22.7011 37.9536 22.4893 38.0368C22.1973 38.1518 21.9182 38.2834 21.6519 38.4279C21.3839 38.5813 21.269 38.888 21.3839 39.1756C21.5562 39.6357 21.4414 40.1342 21.1159 40.4793C20.7905 40.8051 20.2544 40.9203 19.8141 40.7477C19.5269 40.6518 19.2015 40.767 19.0675 41.0353C18.7994 41.5338 18.5889 42.0323 18.4548 42.5308C18.3783 42.8182 18.5123 43.1249 18.7994 43.2401C19.2398 43.4316 19.5078 43.8726 19.5078 44.352C19.5078 44.8312 19.2206 45.2722 18.7994 45.464C18.5314 45.598 18.3783 45.9048 18.474 46.1924C18.6272 46.71 18.8186 47.2085 19.0675 47.6685C19.2015 47.9371 19.5269 48.0521 19.8141 47.9562C20.2544 47.8028 20.7905 47.8987 21.1159 48.2438C21.4605 48.5889 21.5562 49.0874 21.3839 49.5475C21.269 49.8349 21.4031 50.161 21.6711 50.2952C22.1497 50.5445 22.6283 50.7553 23.1452 50.8894C23.1677 50.8969 23.1903 50.9016 23.2129 50.9045C23.233 50.9069 23.253 50.908 23.2731 50.9085L23.3174 50.9087C23.5664 50.9087 23.7769 50.7744 23.8727 50.5445C24.0641 50.1035 24.5044 49.8349 24.983 49.8349C25.4616 49.8349 25.9019 50.1226 26.0933 50.5445C26.2082 50.8128 26.5145 50.9662 26.8017 50.8894C27.2995 50.7553 27.7972 50.5636 28.2949 50.2759C28.5629 50.1226 28.6778 49.8158 28.5821 49.5282C28.4097 49.0681 28.5246 48.5696 28.8501 48.2245C29.1755 47.8987 29.7116 47.7837 30.1519 47.9371L30.191 47.9471C30.2495 47.9624 30.2994 47.9755 30.3625 47.9755C30.5922 47.9755 30.7837 47.8603 30.8985 47.6685C31.1473 47.2278 31.3388 46.7484 31.5111 46.1924C31.5877 45.9048 31.4537 45.598 31.1665 45.464C30.7262 45.2722 30.4583 44.8312 30.4583 44.352C30.4773 43.8726 30.7645 43.4316 31.1856 43.2208ZM27.3186 49.4132C27.2037 49.4707 27.0697 49.5091 26.9549 49.5666C26.4954 48.9722 25.7679 48.608 25.0213 48.608C24.2556 48.608 23.5472 48.9722 23.0877 49.5666C23.0172 49.5431 22.9394 49.5122 22.8633 49.4787C22.8154 49.4576 22.7683 49.4354 22.724 49.4132C22.8198 48.6655 22.5708 47.8987 22.0348 47.3618C21.518 46.8442 20.733 46.5759 19.9864 46.6718C19.929 46.5566 19.8907 46.4226 19.8332 46.3074C20.4268 45.8473 20.7905 45.1189 20.7905 44.3711C20.7905 43.6043 20.4268 42.895 19.8332 42.4156C19.8715 42.3006 19.929 42.1663 19.9864 42.0514C20.733 42.1472 21.518 41.898 22.0348 41.3611C22.59 40.8051 22.8389 40.0767 22.724 39.3099C22.7816 39.2811 22.8441 39.2571 22.9065 39.2331C22.9685 39.2092 23.0305 39.1852 23.0877 39.1566C23.5472 39.77 24.2746 40.1151 25.0404 40.1151C25.8062 40.1151 26.5145 39.7507 26.974 39.1566C27.0888 39.1947 27.2229 39.2522 27.3378 39.3099C27.242 40.0574 27.4909 40.8245 28.0268 41.3611C28.5629 41.898 29.3287 42.1472 30.0754 42.0514C30.0889 42.0784 30.1013 42.1066 30.1133 42.1353C30.1228 42.1579 30.1317 42.181 30.1406 42.2041L30.1531 42.2365L30.1705 42.2813L30.1878 42.3246C30.2006 42.3559 30.2139 42.3863 30.2285 42.4156C29.6159 42.8757 29.2713 43.6043 29.2713 44.3711C29.2713 45.1379 29.635 45.8473 30.2285 46.3074C30.1902 46.4416 30.1327 46.5566 30.0754 46.6718C29.3287 46.5759 28.5438 46.8442 28.0268 47.3618C27.4717 47.8796 27.2229 48.6464 27.3186 49.4132ZM25.0021 41.9173C23.6811 41.9173 22.5899 43.0102 22.5899 44.3329C22.5899 45.675 23.6811 46.7486 25.0021 46.7486C26.323 46.7486 27.4142 45.6557 27.4142 44.3329C27.4142 43.0102 26.3421 41.9173 25.0021 41.9173ZM25.0021 45.5217C24.3512 45.5217 23.8152 44.9848 23.8152 44.3329C23.8152 43.6811 24.3512 43.1442 25.0021 43.1442C25.6529 43.1442 26.189 43.6811 26.189 44.3329C26.189 44.9848 25.6529 45.5217 25.0021 45.5217ZM25.1936 20.4067C25.4425 20.4067 25.6913 20.3492 25.9211 20.2534L26.5337 20.8477C26.6486 20.9627 26.8017 21.0202 26.974 21.0202C27.1463 21.0202 27.2995 20.9627 27.4143 20.8477C27.5292 20.7325 27.5866 20.5792 27.5866 20.4067C27.5866 20.3215 27.5726 20.2409 27.5424 20.1675C27.5113 20.092 27.4631 20.0239 27.3951 19.9657L26.6295 19.3714C26.9166 18.7195 26.706 17.9527 26.0934 17.4351C25.8062 17.1091 25.4042 16.9366 24.983 16.9366C24.5619 16.9366 24.1599 17.1091 23.8153 17.4351C23.1644 18.087 23.2027 19.1798 23.911 19.8892C24.2748 20.2341 24.715 20.4067 25.1936 20.4067ZM24.9065 18.3169C25.0021 18.221 25.1362 18.1635 25.2702 18.1635C25.4042 18.1635 25.5382 18.221 25.634 18.3169C25.6855 18.3684 25.7258 18.4312 25.7523 18.4991C25.7666 18.536 25.7768 18.5744 25.7822 18.613C25.7854 18.6356 25.7871 18.6585 25.7871 18.6813C25.7871 18.7479 25.7729 18.8147 25.7469 18.8766C25.7206 18.9395 25.6821 18.9974 25.634 19.0455C25.4616 19.218 25.0979 19.218 24.9256 19.0455C24.715 18.8347 24.715 18.528 24.9065 18.3169ZM20.5032 19.2564C20.5032 19.6208 20.216 19.9276 19.8906 19.9276H4.95825C4.6328 19.9276 4.34563 19.6208 4.34563 19.2564C4.34563 18.8922 4.6328 18.5855 4.95825 18.5855H19.8906C20.216 18.5855 20.5032 18.8922 20.5032 19.2564Z"></path></svg>