<svg xmlns="http://www.w3.org/2000/svg" width="50" height="51" viewBox="0 0 50 51"><path fill-rule="evenodd" clip-rule="evenodd" d="M2.91978e-05 41.0504V13.0243C2.91978e-05 11.4904 1.30574 10.2188 2.94236 10.2188H10.2679V4.68754C10.2679 2.62981 12.0096 0.90918 14.2055 0.90918H30.6362C30.8916 0.915717 31.1323 1.02236 31.2997 1.20337L39.5477 9.81183C39.6502 9.93115 39.7238 10.0701 39.7631 10.2188H47.0576C48.6943 10.2188 50 11.4904 50 13.0243V41.0504C50.0035 41.7814 49.6944 42.4838 49.1411 42.9998C48.5883 43.5159 47.838 43.8027 47.0576 43.7962H32.966L34.5476 49.2355H37.7616C38.2546 49.2355 38.6544 49.6102 38.6544 50.0724C38.6544 50.5345 38.2546 50.9092 37.7616 50.9092H12.238C11.7449 50.9092 11.3451 50.5345 11.3451 50.0724C11.3451 49.6102 11.7449 49.2355 12.238 49.2355H15.4524L17.0336 43.7962H2.94236C2.16198 43.8027 1.41168 43.5159 0.85888 42.9998C0.305641 42.4838 -0.00345852 41.7814 2.91978e-05 41.0504ZM17.3043 49.2355H32.6952L31.1135 43.7962H18.886L17.3043 49.2355ZM2.94236 42.1226H47.0576C47.3646 42.1295 47.661 42.0192 47.879 41.8169C48.0974 41.6147 48.2182 41.338 48.2143 41.0504V36.3694H1.78574V41.0504C1.78182 41.338 1.90258 41.6147 2.121 41.8169C2.33898 42.0192 2.63544 42.1295 2.94236 42.1226ZM36.2767 8.96357L31.5848 3.9733V8.30776C31.5848 8.64445 31.8215 8.96357 32.1808 8.96357H36.2767ZM48.2143 34.6958V13.0243C48.2278 12.413 47.7103 11.9063 47.0576 11.8924H39.7321V34.6958H48.2143ZM29.7991 2.58282H14.2055C12.9944 2.58282 12.0536 3.55244 12.0536 4.68754V34.6958H37.9468V10.7042L37.8841 10.6372H32.1812C30.8371 10.6372 29.7991 9.56749 29.7991 8.30776V2.58282ZM1.78574 34.6958H10.2679V11.8924H2.94236C2.28972 11.9063 1.77223 12.413 1.78574 13.0243V34.6958ZM24.7376 29.1924L16.5559 26.7159C16.1923 26.6023 15.9503 26.2791 15.9599 25.9199V15.4384C15.949 15.0796 16.1901 14.7564 16.5533 14.642L24.7206 12.1659C24.8968 12.112 25.0864 12.112 25.2625 12.1659L33.4443 14.642C33.8079 14.756 34.0498 15.0792 34.0403 15.4384V25.9199C34.0503 26.2791 33.8088 26.6023 33.4452 26.7159L25.2765 29.1924C25.1889 29.219 25.0973 29.2324 25.0053 29.2324C24.9142 29.2324 24.824 29.219 24.7376 29.1924ZM23.9956 18.4907L17.7456 16.5878V25.3099L23.9956 27.2131V18.4907ZM25.7813 18.5585V27.2805L32.2545 25.3099V16.5878L25.7813 18.5585ZM30.284 15.4384L25.0001 13.8416L19.7162 15.4384L25.0001 17.036L30.284 15.4384Z"></path></svg>