<svg xmlns="http://www.w3.org/2000/svg" width="70" height="71" viewBox="0 0 70 71" fill="none"><rect y="0.90918" width="70" height="70" rx="10" fill="#10293A"></rect><path fill-rule="evenodd" clip-rule="evenodd" d="M31 23.9092C31 21.7 32.7909 19.9092 35 19.9092C37.2092 19.9092 39 21.7 39 23.9092V47.9092C39 50.1183 37.2092 51.9092 35 51.9092C32.7909 51.9092 31 50.1183 31 47.9092V23.9092ZM19 36.3092C19 33.8791 20.97 31.9092 23.4 31.9092C25.8301 31.9092 27.8 33.8791 27.8 36.3092V47.5092C27.8 49.9392 25.8301 51.9092 23.4 51.9092C20.97 51.9092 19 49.9392 19 47.5092V36.3092ZM51 41.7197C51 39.3943 49.1149 37.5092 46.7895 37.5092C44.4641 37.5092 42.5789 39.3943 42.5789 41.7197V47.6987C42.5789 50.0241 44.4641 51.9092 46.7895 51.9092C49.1149 51.9092 51 50.0241 51 47.6987V41.7197Z" fill="#21D37E"></path></svg>