<svg width="34" height="45" viewBox="0 0 34 45" fill="none" xmlns="http://www.w3.org/2000/svg">
<path d="M3.51562 16.6993C3.51562 23.9688 9.42973 29.8829 16.6993 29.8829C23.9688 29.8829 29.8829 23.9688 29.8829 16.6993C29.8829 9.42973 23.9688 3.51562 16.6993 3.51562C9.42973 3.51562 3.51562 9.42973 3.51562 16.6993ZM16.6993 5.27345C22.9996 5.27345 28.1251 10.3989 28.1251 16.6993C28.1251 22.9996 22.9996 28.1251 16.6993 28.1251C10.3989 28.1251 5.27345 22.9996 5.27345 16.6993C5.27345 10.3989 10.3989 5.27345 16.6993 5.27345Z" fill="#0F2552"/>
<path d="M8.55898 15.132L11.9658 18.4887L11.182 23.2063C11.1274 23.5349 11.263 23.8658 11.5325 24.0615C11.8017 24.2572 12.1584 24.2836 12.454 24.1305L16.6985 21.9264L20.9427 24.1305C21.2359 24.2826 21.5926 24.2589 21.8642 24.0615C22.1337 23.8658 22.2693 23.5349 22.2147 23.2063L21.4309 18.4887L24.8377 15.132C25.0749 14.8985 25.1597 14.5511 25.0567 14.2342C24.9537 13.9177 24.6808 13.6866 24.3516 13.6368L19.6236 12.9251L17.4844 8.64694C17.3357 8.34927 17.0312 8.16113 16.6985 8.16113C16.3655 8.16113 16.0613 8.34927 15.9123 8.64694L13.773 12.9251L9.04513 13.6368C8.71588 13.6863 8.44294 13.9177 8.33994 14.2342C8.23694 14.5511 8.32209 14.8985 8.55898 15.132Z" fill="#FF845D"/>
<path d="M17.5781 0.87891C17.5781 1.36437 17.1847 1.75782 16.6992 1.75782C16.2138 1.75782 15.8203 1.36437 15.8203 0.87891C15.8203 0.39345 16.2138 0 16.6992 0C17.1847 0 17.5781 0.39345 17.5781 0.87891Z" fill="#0F2552"/>
<path d="M12.5571 0.517674C5.1636 2.40493 0 9.05889 0 16.6989C0 21.444 1.99506 25.9151 5.49731 29.0816L0.202218 38.4135C0.0319291 38.7139 0.0532153 39.086 0.256463 39.3648C0.459711 39.6439 0.807155 39.7782 1.14533 39.7078L7.15865 38.4591L9.27216 44.4148C9.38683 44.7389 9.68037 44.9658 10.023 44.9964C10.3656 45.0269 10.6942 44.8542 10.8642 44.5552L16.6993 34.2967L22.5341 44.5552C22.6913 44.8316 22.9838 44.9995 23.2976 44.9995C23.3234 44.9995 23.3495 44.9984 23.3752 44.9964C23.7179 44.9658 24.0114 44.7385 24.1264 44.4148L26.2396 38.4591L32.2529 39.7078C32.5907 39.7778 32.9385 39.6436 33.1418 39.3648C33.3454 39.086 33.3663 38.7139 33.196 38.4135L27.9009 29.0816C31.4032 25.9151 33.3982 21.444 33.3982 16.6989C33.3982 9.05889 28.2346 2.40493 20.8415 0.517674C20.3708 0.39751 19.8925 0.68144 19.7724 1.15179C19.6522 1.62215 19.9362 2.10074 20.4065 2.22091C27.021 3.90937 31.6408 9.86296 31.6408 16.6989C31.6408 25.0187 24.8838 31.6404 16.6993 31.6404C8.50895 31.6404 1.75782 25.0132 1.75782 16.6989C1.75782 9.86296 6.37725 3.90937 12.9917 2.22091C13.4621 2.10074 13.746 1.62215 13.6262 1.15179C13.506 0.68144 13.0278 0.39751 12.5571 0.517674ZM10.2863 42.0163L8.55907 37.149C8.41213 36.735 7.98229 36.4929 7.5521 36.5822L2.6896 37.5919L6.88022 30.2063C9.32366 31.9827 12.2168 33.0648 15.2254 33.3326L10.2863 42.0163ZM25.8461 36.5822C25.4163 36.4929 24.9861 36.735 24.8392 37.149L23.1122 42.0163L18.1728 33.3326C21.1817 33.0648 24.0746 31.9827 26.5184 30.2063L30.709 37.5919L25.8461 36.5822Z" fill="#0F2552"/>
</svg>
