<svg width="80" height="80" viewBox="0 0 80 80" xmlns="http://www.w3.org/2000/svg">
<path fill-rule="evenodd" clip-rule="evenodd" d="M34.5455 25.4545C41.5745 25.4545 47.2727 19.7565 47.2727 12.7273C47.2727 5.69809 41.5745 0 34.5455 0C27.5164 0 21.8182 5.69809 21.8182 12.7273C21.8182 19.7565 27.5164 25.4545 34.5455 25.4545ZM80 18.1818H73.3333C55.5933 18.1818 41.2121 32.563 41.2121 50.303V67.8788H47.8788C65.6188 67.8788 80 53.4976 80 35.7576V18.1818ZM0 30.303H6.66667C24.4067 30.303 38.7879 44.6842 38.7879 62.4242V80H32.1212C14.3812 80 0 65.6188 0 47.8788V30.303Z"/>
</svg>
