<svg xmlns="http://www.w3.org/2000/svg" width="150" height="42" viewBox="0 0 150 42" fill="none"><path fill-rule="evenodd" clip-rule="evenodd" d="M115.56 0H121.834V33.3172H115.56V0ZM136.772 41.9902H130.602L134.158 33.423L124.589 9.99517H131.177L137.452 25.9134H137.661L143.883 9.99517H150L136.772 41.9902ZM95.9901 25.3845L90.5524 25.596C90.9707 31.3076 95.5718 33.9518 101.585 33.9518C107.545 33.9518 111.623 31.3076 111.623 26.548C111.623 22.1586 108.748 20.0961 103.885 19.3028L99.4931 18.5624C97.82 18.298 96.9835 17.5576 96.9835 16.2884C96.9835 14.7019 98.4474 13.6971 100.696 13.6971C103.99 13.6971 105.767 15.0192 106.186 17.6634L111.362 17.4518C110.944 12.2692 107.127 9.36053 100.748 9.36053C94.8921 9.36053 91.1798 12.4278 91.1798 16.8701C91.1798 21.2066 93.8987 23.0576 98.8134 23.8509L102.473 24.4855C104.774 24.8557 105.82 25.5432 105.82 27.1297C105.82 28.822 103.937 29.6153 101.637 29.6153C98.4474 29.6153 96.356 28.1874 95.9901 25.3845ZM67.2183 25.596L72.6559 25.3845C73.0219 28.1874 75.1133 29.6153 78.3027 29.6153C80.6032 29.6153 82.4855 28.822 82.4855 27.1297C82.4855 25.5432 81.4398 24.8557 79.1392 24.4855L75.4793 23.8509C70.5645 23.0576 67.8457 21.2066 67.8457 16.8701C67.8457 12.4278 71.5579 9.36053 77.4138 9.36053C83.7926 9.36053 87.6094 12.2692 88.0277 17.4518L82.8515 17.6634C82.4332 15.0192 80.6555 13.6971 77.3616 13.6971C75.1133 13.6971 73.6493 14.7019 73.6493 16.2884C73.6493 17.5576 74.4859 18.298 76.159 18.5624L80.5509 19.3028C85.4134 20.0961 88.2891 22.1586 88.2891 26.548C88.2891 31.3076 84.2109 33.9518 78.2504 33.9518C72.2376 33.9518 67.6366 31.3076 67.2183 25.596ZM56.247 22.6345V23.2162C56.247 26.971 53.7374 29.5095 50.4434 29.5095C48.4566 29.5095 47.254 28.5576 47.254 26.971C47.254 24.6441 49.1886 24.1682 51.9074 23.5864L56.247 22.6345ZM62.3644 27.6585V18.3509C62.3644 12.2163 58.443 9.36053 52.4825 9.36053C46.3652 9.36053 42.7575 12.6922 41.9733 17.4518L47.6723 17.9807C48.1952 15.7067 49.6069 14.1201 52.2211 14.1201C54.8876 14.1201 56.247 15.7067 56.247 18.298V18.8268L49.9206 20.0961C44.6921 21.1538 41.1367 23.0047 41.1367 27.447C41.1367 31.4662 44.0647 33.8989 48.8749 33.8989C52.2734 33.8989 55.4105 32.471 56.7176 29.7739C57.2927 32.3124 58.9659 33.846 61.5801 33.846C63.6715 33.846 64.9263 33.1585 65.9198 32.3652V28.9806C65.24 29.2979 64.6126 29.4566 63.9852 29.4566C62.9918 29.4566 62.3644 28.8749 62.3644 27.6585Z" fill="white"></path><path fill-rule="evenodd" clip-rule="evenodd" d="M22.0363 13.4263L30.7864 20.3497C31.0213 20.5453 36.5121 25.288 35.2104 31.9474C35.1516 32.2701 34.7993 34.1281 33.429 36.1034C32.0783 38.0494 29.4651 40.631 22.6822 41.4817L19.0413 42L23.5142 38.7534L23.5149 38.7529C23.5856 38.7001 27.3809 35.8627 27.5173 32.1527C27.5956 30.0307 26.4407 27.9381 24.0819 25.9236L15.8701 19.3718C15.3024 18.9611 11.0154 15.6852 11.9648 9.43655C12.004 9.16275 13.0512 2.53271 21.0477 0C21.0184 0.00977881 18.7281 3.71595 18.6889 6.96251C18.6595 8.27287 18.9825 9.65169 19.9124 11.099C20.48 11.9888 21.2043 12.7711 22.0363 13.4263ZM10.594 23.1719C10.5429 23.3644 11.5525 26.9359 12.8867 28.965C14.8696 31.9804 20.046 34.7581 20.046 34.7581H0C0.00906236 34.7521 0.0495998 34.7344 0.118192 34.7045C1.14626 34.2561 8.47672 31.0589 10.594 23.1719Z" fill="#FF845D"></path></svg>