<svg xmlns="http://www.w3.org/2000/svg" width="12" height="16" viewBox="0 0 12 16" fill="none"><path d="M5.69329 16H3.12863L4.46196 10.6667H1.70663C1.44034 10.6666 1.17778 10.6042 0.939911 10.4845C0.702044 10.3648 0.49547 10.1911 0.336697 9.97734C0.177924 9.76357 0.0713535 9.51563 0.0255018 9.25332C-0.02035 8.99102 -0.00421175 8.72162 0.0726267 8.46667L2.63329 0H8.94463L6.94463 5.33333H9.62663C9.93177 5.33353 10.2312 5.4164 10.493 5.57315C10.7548 5.72989 10.9692 5.95465 11.1135 6.22353C11.2578 6.4924 11.3265 6.79535 11.3124 7.10017C11.2983 7.40499 11.2018 7.70029 11.0333 7.95467L5.69329 16ZM4.83663 14.6667H4.97796L9.92196 7.21733C9.95738 7.16391 9.97767 7.10189 9.98065 7.03786C9.98364 6.97383 9.96922 6.91019 9.93892 6.85371C9.90863 6.79722 9.86359 6.75 9.8086 6.71706C9.75361 6.68413 9.69072 6.66671 9.62663 6.66667H5.02063L7.02063 1.33333H3.62263L1.34863 8.85067C1.33165 8.90657 1.32801 8.96567 1.33799 9.02323C1.34797 9.08079 1.3713 9.13521 1.4061 9.18214C1.4409 9.22906 1.48622 9.26718 1.5384 9.29343C1.59059 9.31969 1.64821 9.33335 1.70663 9.33333H6.17329L4.83663 14.6667Z" fill="white"></path></svg>