<svg width="115" height="32" viewBox="0 0 115 32" fill="none" xmlns="http://www.w3.org/2000/svg">
<path fill-rule="evenodd" clip-rule="evenodd" d="M88.5957 0H93.4059V25.3845H88.5957V0ZM104.858 31.9926H100.128L102.854 25.4651L95.5185 7.61537H100.569L105.379 19.7435H105.54L110.31 7.61537H115L104.858 31.9926ZM73.5923 19.3406L69.4235 19.5017C69.7441 23.8534 73.2716 25.868 77.8814 25.868C82.4511 25.868 85.5777 23.8534 85.5777 20.227C85.5777 16.8827 83.3731 15.3113 79.6451 14.7069L76.278 14.1428C74.9953 13.9413 74.3539 13.3772 74.3539 12.4102C74.3539 11.2014 75.4763 10.4359 77.2 10.4359C79.7253 10.4359 81.0882 11.4432 81.4089 13.4578L85.3773 13.2966C85.0566 9.34794 82.1304 7.13183 77.24 7.13183C72.7505 7.13183 69.9045 9.46882 69.9045 12.8534C69.9045 16.1574 71.9889 17.5677 75.7569 18.1721L78.5628 18.6556C80.3266 18.9376 81.1283 19.4615 81.1283 20.6702C81.1283 21.9596 79.6852 22.564 77.9215 22.564C75.4763 22.564 73.8729 21.4761 73.5923 19.3406ZM51.534 19.5017L55.7028 19.3406C55.9834 21.4761 57.5868 22.564 60.032 22.564C61.7957 22.564 63.2388 21.9596 63.2388 20.6702C63.2388 19.4615 62.4371 18.9376 60.6733 18.6556L57.8674 18.1721C54.0994 17.5677 52.015 16.1574 52.015 12.8534C52.015 9.46882 54.861 7.13183 59.3505 7.13183C64.2409 7.13183 67.1671 9.34794 67.4878 13.2966L63.5194 13.4578C63.1987 11.4432 61.8358 10.4359 59.3105 10.4359C57.5868 10.4359 56.4644 11.2014 56.4644 12.4102C56.4644 13.3772 57.1058 13.9413 58.3885 14.1428L61.7556 14.7069C65.4836 15.3113 67.6882 16.8827 67.6882 20.227C67.6882 23.8534 64.5616 25.868 59.9919 25.868C55.3821 25.868 51.8546 23.8534 51.534 19.5017ZM43.1227 17.2453V17.6886C43.1227 20.5494 41.1986 22.4834 38.6732 22.4834C37.15 22.4834 36.228 21.7582 36.228 20.5494C36.228 18.7765 37.7112 18.4138 39.7956 17.9706L43.1227 17.2453ZM47.8126 21.0732V13.9816C47.8126 9.30765 44.8062 7.13183 40.2365 7.13183C35.5466 7.13183 32.7807 9.67029 32.1794 13.2966L36.5487 13.6996C36.9496 11.967 38.0319 10.7582 40.0361 10.7582C42.0805 10.7582 43.1227 11.967 43.1227 13.9413V14.3443L38.2724 15.3113C34.2639 16.1171 31.5381 17.5274 31.5381 20.912C31.5381 23.9743 33.7828 25.8277 37.4707 25.8277C40.0762 25.8277 42.4813 24.7398 43.4834 22.6849C43.9244 24.6189 45.2071 25.7874 47.2113 25.7874C48.8147 25.7874 49.7768 25.2636 50.5384 24.6592V22.0805C50.0173 22.3222 49.5363 22.4431 49.0553 22.4431C48.2936 22.4431 47.8126 21.9999 47.8126 21.0732Z" fill="white"/>
<path fill-rule="evenodd" clip-rule="evenodd" d="M16.8946 10.2296L23.603 15.5045C23.7831 15.6536 27.9928 19.2671 26.9947 24.3409C26.9497 24.5867 26.6796 26.0023 25.6291 27.5073C24.5935 28.99 22.59 30.9569 17.3899 31.6051L14.5984 32L18.0277 29.5264L18.0282 29.526C18.0827 29.4856 20.9921 27.3239 21.0967 24.4973C21.1568 22.8806 20.2713 21.2861 18.4629 19.7513L12.1672 14.7595C11.732 14.4466 8.44529 11.9506 9.17316 7.18976C9.20317 6.98114 10.0061 1.92969 16.1367 0C16.1142 0.00745052 14.3583 2.8312 14.3283 5.30477C14.3058 6.30314 14.5534 7.35367 15.2663 8.45634C15.7015 9.13434 16.2568 9.73038 16.8946 10.2296ZM8.12209 17.6552C8.08289 17.8019 8.85688 20.523 9.87981 22.069C11.4 24.3664 15.3686 26.4827 15.3686 26.4827H0C0.00694786 26.4782 0.038027 26.4647 0.0906152 26.4419C0.878808 26.1003 6.49882 23.6643 8.12209 17.6552Z" fill="#20BE72"/>
</svg>
