<svg width="80" height="80" viewBox="0 0 80 80" fill="none" xmlns="http://www.w3.org/2000/svg">
<path d="M80.0001 40.8889C80.0001 37.6 79.7278 35.2 79.1384 32.7112H40.8164V47.5555H63.3106C62.8572 51.2445 60.4082 56.8 54.966 60.5332L54.8897 61.0301L67.0064 70.2291L67.8458 70.3112C75.5555 63.3333 80.0001 53.0666 80.0001 40.8889Z" fill="#4285F4"/>
<path d="M40.8165 80C51.8367 80 61.0883 76.4443 67.8459 70.3111L54.966 60.5331C51.5194 62.8887 46.8934 64.5331 40.8165 64.5331C30.0229 64.5331 20.8619 57.5556 17.5963 47.9111L17.1177 47.951L4.51853 57.5065L4.35376 57.9554C11.0657 71.022 24.8526 80 40.8165 80Z" fill="#34A853"/>
<path d="M17.5962 47.9112C16.7345 45.4223 16.2359 42.7554 16.2359 40C16.2359 37.2443 16.7345 34.5777 17.5509 32.0889L17.528 31.5588L4.77102 21.8497L4.35364 22.0443C1.58732 27.4666 0 33.5556 0 40C0 46.4444 1.58732 52.5331 4.35364 57.9554L17.5962 47.9112Z" fill="#FBBC04"/>
<path d="M40.8164 15.4666C48.4807 15.4666 53.6507 18.711 56.5987 21.4223L68.1179 10.4C61.0433 3.95557 51.8367 0 40.8164 0C24.8526 0 11.0657 8.97771 4.35376 22.0443L17.551 32.0889C20.8619 22.4444 30.0229 15.4666 40.8164 15.4666Z" fill="#EA4335"/>
</svg>
