<svg width="80" height="80" viewBox="0 0 80 80" fill="none" xmlns="http://www.w3.org/2000/svg">
<path d="M40 0C17.9194 0 0 17.9194 0 40C0 62.0806 17.9194 80 40 80C62.0806 80 80 62.0806 80 40C80 17.9194 62.0806 0 40 0Z" fill="#1ED760"/>
<path d="M65.5805 35.9839C64.7418 35.9839 64.2257 35.7742 63.4999 35.3548C52.016 28.5 31.4838 26.8548 18.1934 30.5645C17.6128 30.7258 16.887 30.9839 16.1128 30.9839C13.9838 30.9839 12.3547 29.3226 12.3547 27.1774C12.3547 24.9839 13.7096 23.7419 15.1612 23.3226C20.8386 21.6613 27.1934 20.871 34.1128 20.871C45.887 20.871 58.2257 23.3226 67.2418 28.5806C68.4999 29.3065 69.3225 30.3065 69.3225 32.2258C69.3225 34.4194 67.5483 35.9839 65.5805 35.9839ZM60.5805 48.2742C59.7418 48.2742 59.1773 47.9032 58.5967 47.5968C48.516 41.629 33.4838 39.2258 20.1128 42.8548C19.3386 43.0645 18.9193 43.2742 18.1934 43.2742C16.4676 43.2742 15.0644 41.871 15.0644 40.1452C15.0644 38.4194 15.9031 37.2742 17.5644 36.8065C22.0483 35.5484 26.6289 34.6129 33.3386 34.6129C43.8063 34.6129 53.9193 37.2097 61.887 41.9516C63.1934 42.7258 63.7096 43.7258 63.7096 45.129C63.6934 46.871 62.3386 48.2742 60.5805 48.2742ZM56.2418 58.8548C55.5644 58.8548 55.1451 58.6452 54.516 58.2742C44.4515 52.2097 32.7418 51.9516 21.1773 54.3226C20.5483 54.4839 19.7257 54.7419 19.258 54.7419C17.6934 54.7419 16.7096 53.5 16.7096 52.1936C16.7096 50.5323 17.6934 49.7419 18.9031 49.4839C32.1128 46.5645 45.6128 46.8226 57.1289 53.7097C58.1128 54.3387 58.6934 54.9032 58.6934 56.371C58.6934 57.8387 57.5483 58.8548 56.2418 58.8548Z" fill="black"/>
</svg>
