<svg xmlns="http://www.w3.org/2000/svg" width="1102" height="826" viewBox="0 0 1102 826" fill="none"><path fill-rule="evenodd" clip-rule="evenodd" d="M-3 40.0992V131.672C-2.89966 131.625 -2.79895 131.578 -2.69775 131.53C8.96118 126.087 26.0797 118.745 47.3256 111.471C90.0665 96.8366 148.14 82.9502 211.406 84.4138C274.215 85.8669 341.876 102.398 405.775 148.425C469.783 194.531 533.02 272.402 583.165 401.544C657.424 592.788 784.061 699.241 892.351 757.465C946.287 786.464 995.602 803.489 1031.64 813.302C1049.69 818.215 1064.48 821.341 1074.96 823.262C1080.2 824.223 1084.38 824.884 1087.35 825.317C1088.83 825.534 1090.02 825.693 1090.89 825.805C1091.32 825.861 1091.68 825.904 1091.95 825.938C1092.09 825.954 1092.21 825.968 1092.3 825.979L1092.43 825.994L1092.49 826C1092.51 826.003 1092.53 826.005 1097.22 784.113C1101.91 742.22 1101.93 742.222 1101.94 742.224L1101.97 742.228L1102 742.231C1101.95 742.225 1101.83 742.209 1101.62 742.183C1101.22 742.131 1100.51 742.037 1099.5 741.891C1097.5 741.599 1094.34 741.103 1090.16 740.336C1081.78 738.801 1069.32 736.185 1053.79 731.956C1022.68 723.484 979.539 708.621 932.276 683.21C838.168 632.612 727.426 540.151 661.756 371.028C607.043 230.121 534.992 137.599 455.05 80.0168C375 22.3556 290.05 1.90317 213.356 0.128855C137.117 -1.63491 68.795 15.0073 20.0157 31.7087C11.8123 34.5175 4.12305 37.3412 -3 40.0992Z" fill="url(#paint0_linear_3811_515)" fill-opacity="0.1"></path><defs><linearGradient id="paint0_linear_3811_515" x1="-3.48942" y1="48.0017" x2="638.83" y2="477.447" gradientUnits="userSpaceOnUse"><stop stop-color="#FFE7C2"></stop><stop offset="1" stop-color="#AEE4EB"></stop></linearGradient></defs></svg>