<svg width="80" height="80" viewBox="0 0 80 80" fill="none" xmlns="http://www.w3.org/2000/svg">
<path d="M20 18.1714C31.04 18.1714 40 27.1314 40 38.1714V40H1.82857C0.822857 40 0 39.1771 0 38.1714C0 27.1314 8.96 18.1714 20 18.1714Z" fill="#FBBB05"/>
<path d="M61.8286 20C61.8286 31.04 52.8686 40 41.8286 40H40V1.82857C40 0.822857 40.8229 0 41.8286 0C52.8686 0 61.8286 8.96 61.8286 20Z" fill="#E94335"/>
<path d="M60 61.8286C48.96 61.8286 40 52.8686 40 41.8286V40H78.1714C79.1771 40 80 40.8229 80 41.8286C80 52.8686 71.04 61.8286 60 61.8286Z" fill="#4285F4"/>
<path d="M18.1714 60C18.1714 48.96 27.1314 40 38.1714 40H40V78.1714C40 79.1771 39.1771 80 38.1714 80C27.1314 80 18.1714 71.04 18.1714 60Z" fill="#0F9D58"/>
</svg>
