<svg xmlns="http://www.w3.org/2000/svg" width="51" height="60" viewBox="0 0 51 60" fill="none"><path fill-rule="evenodd" clip-rule="evenodd" d="M31.682 19.1804L44.2621 29.071C44.5998 29.3504 52.494 36.1257 50.6225 45.6391C50.5381 46.1001 50.0315 48.7544 48.0614 51.5763C46.1195 54.3562 42.3624 58.0442 32.6107 59.2596L27.376 60L33.8068 55.362L33.8078 55.3613C33.9099 55.2854 39.366 51.2322 39.5621 45.9325C39.6747 42.901 38.0142 39.9115 34.623 37.0338L22.8168 27.674C22.0006 27.0873 15.8372 22.4075 17.2022 13.4808C17.2585 13.0896 18.7641 3.61816 30.2607 0C30.2185 0.0139697 26.9257 5.3085 26.8694 9.94645C26.8272 11.8184 27.2916 13.7881 28.6284 15.8556C29.4446 17.1269 30.4859 18.2445 31.682 19.1804ZM15.2311 33.1034C15.1576 33.3785 16.6091 38.4807 18.5273 41.3793C21.3781 45.6871 28.8203 49.6552 28.8203 49.6552H0C0.0130291 49.6466 0.0713109 49.6213 0.169928 49.5786C1.648 48.938 12.187 44.3706 15.2311 33.1034Z" fill="#FF845D"></path></svg>