<svg xmlns="http://www.w3.org/2000/svg" width="50" height="51" viewBox="0 0 50 51"><path fill-rule="evenodd" clip-rule="evenodd" d="M34.4973 35.9213H40.6349C45.8024 35.9213 50.0088 31.7503 50 26.6261C50 22.9535 47.8747 19.6919 44.5414 18.1792C44.1534 13.6059 40.2469 9.97711 35.5555 9.97711C35.3527 9.97711 35.1499 9.98565 34.9471 9.9944C33.642 4.68677 28.8448 0.90918 23.2451 0.90918C16.8783 0.90918 11.649 5.82357 11.2081 12.0231C4.9559 12.4604 0 17.6457 0 23.9592C0 30.561 5.41447 35.9213 12.0635 35.9213H15.679C16.164 35.9213 16.5609 35.5279 16.5609 35.0469C16.5609 34.5659 16.164 34.1725 15.679 34.1725H12.0635C6.38447 34.1725 1.76367 29.5905 1.76367 23.9592C1.76367 18.319 6.38447 13.737 12.0635 13.737C12.5485 13.737 12.9453 13.3435 12.9453 12.8626C12.9453 7.23128 17.5749 2.64928 23.254 2.64928C27.9688 2.64928 32.0141 5.78386 33.1948 10.2248C32.0306 10.4709 30.0973 11.1321 28.5361 12.8888C28.2186 13.2473 28.2539 13.807 28.6155 14.1217C28.783 14.2705 28.9946 14.3403 29.1975 14.3403C29.4444 14.3403 29.6824 14.2442 29.8588 14.0519C31.6842 11.9881 34.2327 11.8308 34.2945 11.8308C34.364 11.8282 34.4313 11.818 34.4956 11.8003C34.646 11.7804 34.8004 11.7638 34.9569 11.7512C35.157 11.7351 35.3607 11.726 35.5644 11.726C39.4885 11.726 42.7425 14.8913 42.813 18.7825C42.8218 19.1411 43.0423 19.4558 43.3774 19.5871C46.3315 20.7237 48.2451 23.487 48.2451 26.6261C48.2451 30.7883 44.8325 34.1725 40.6349 34.1725H34.4973C34.0123 34.1725 33.6155 34.5659 33.6155 35.0469C33.6155 35.5279 34.0123 35.9213 34.4973 35.9213ZM8.00701 40.8532L8.00707 40.8609C8.00298 41.802 7.22852 42.5671 6.27871 42.5671C5.32631 42.5671 4.55029 41.7977 4.55029 40.8532C4.55029 39.909 5.32631 39.1394 6.27871 39.1394C7.22852 39.1394 8.00298 39.9047 8.00707 40.8456L8.00701 40.8532ZM9.6598 41.7277H19.1622C19.6472 41.7277 20.0441 41.343 20.0441 40.8532V29.6955C20.0441 29.2145 19.6472 28.8211 19.1622 28.8211C18.6772 28.8211 18.2804 29.2145 18.2804 29.6955V39.9788H9.65518C9.25942 38.4977 7.8935 37.3993 6.27871 37.3993C4.35632 37.3993 2.78662 38.9558 2.78662 40.862C2.78662 42.7682 4.35632 44.3247 6.27871 44.3247C7.89985 44.3247 9.27018 43.2178 9.6598 41.7277ZM30.8554 41.7277H40.3578C40.7475 43.2178 42.1178 44.3247 43.739 44.3247C45.6702 44.3247 47.231 42.7682 47.231 40.862C47.231 38.9558 45.6614 37.3993 43.739 37.3993C42.1242 37.3993 40.7582 38.4977 40.3625 39.9788H31.7372V29.6955C31.7372 29.2145 31.3404 28.8211 30.8554 28.8211C30.3704 28.8211 29.9735 29.2145 29.9735 29.6955V40.8532C29.9735 41.3342 30.3704 41.7277 30.8554 41.7277ZM43.739 42.5671C42.7866 42.5671 42.0106 41.7977 42.0106 40.8532C42.0106 39.909 42.7866 39.1394 43.739 39.1394C44.7002 39.1394 45.4674 39.909 45.4674 40.8532C45.4674 41.7977 44.6913 42.5671 43.739 42.5671ZM20.8906 47.123C20.8906 45.3341 22.1441 43.8335 23.8271 43.4383V29.7043C23.8271 29.2233 24.2239 28.8298 24.7089 28.8298C25.1939 28.8298 25.5907 29.2233 25.5907 29.7043V43.4383C27.2737 43.8333 28.5272 45.3341 28.5272 47.123C28.5272 49.2128 26.8165 50.9092 24.7089 50.9092C22.6014 50.9092 20.8906 49.2128 20.8906 47.123ZM24.7089 45.0943C23.5802 45.0943 22.6543 46.0038 22.6543 47.1318C22.6543 48.2596 23.5713 49.1691 24.7089 49.1691C25.8377 49.1691 26.7636 48.2596 26.7636 47.1318C26.7636 46.0038 25.8377 45.0943 24.7089 45.0943Z"></path></svg>