<svg xmlns="http://www.w3.org/2000/svg" width="71" height="71" viewBox="0 0 71 71" fill="none"><rect x="0.5" y="0.90918" width="70" height="70" rx="10" fill="#10293A"></rect><path fill-rule="evenodd" clip-rule="evenodd" d="M36.1645 20.3473C35.8978 19.7631 35.1022 19.7631 34.8355 20.3473L33.2333 23.8562C33.126 24.0913 32.9121 24.2537 32.665 24.2877L28.9767 24.7958C28.3627 24.8804 28.1168 25.6712 28.566 26.1168L31.2641 28.7935C31.4449 28.9728 31.5266 29.2356 31.4812 29.4917L30.8038 33.3146C30.6911 33.951 31.3347 34.4398 31.8791 34.131L35.1488 32.2764C35.3678 32.1522 35.6322 32.1522 35.8512 32.2764L39.1209 34.131C39.6653 34.4398 40.3089 33.951 40.1962 33.3146L39.5188 29.4917C39.4734 29.2356 39.5551 28.9728 39.7359 28.7935L42.434 26.1168C42.8832 25.6712 42.6373 24.8804 42.0233 24.7958L38.335 24.2877C38.0879 24.2537 37.874 24.0913 37.7667 23.8562L36.1645 20.3473ZM25.9997 38.0304C26.2664 37.4463 27.0621 37.4463 27.3288 38.0304L28.9309 41.5393C29.0383 41.7744 29.2521 41.9368 29.4992 41.9708L33.1876 42.4789C33.8016 42.5635 34.0475 43.3543 33.5983 43.7999L30.9001 46.4766C30.7194 46.656 30.6377 46.9187 30.6831 47.1748L31.3604 50.9977C31.4732 51.6342 30.8295 52.1229 30.2852 51.8142L27.0155 49.9596C26.7964 49.8353 26.5321 49.8353 26.313 49.9596L23.0433 51.8142C22.499 52.1229 21.8553 51.6342 21.9681 50.9977L22.6455 47.1748C22.6908 46.9187 22.6091 46.656 22.4284 46.4766L19.7302 43.7999C19.2811 43.3543 19.5269 42.5635 20.1409 42.4789L23.8293 41.9708C24.0764 41.9368 24.2902 41.7744 24.3976 41.5393L25.9997 38.0304ZM43.6712 38.0304C43.9379 37.4463 44.7336 37.4463 45.0003 38.0304L46.6024 41.5393C46.7098 41.7744 46.9236 41.9368 47.1707 41.9708L50.8591 42.4789C51.4731 42.5635 51.7189 43.3543 51.2698 43.7999L48.5716 46.4766C48.3909 46.656 48.3092 46.9187 48.3545 47.1748L49.0319 50.9977C49.1447 51.6342 48.501 52.1229 47.9567 51.8142L44.687 49.9596C44.4679 49.8353 44.2036 49.8353 43.9845 49.9596L40.7148 51.8142C40.1705 52.1229 39.5268 51.6342 39.6396 50.9977L40.3169 47.1748C40.3623 46.9187 40.2806 46.656 40.0999 46.4766L37.4017 43.7999C36.9525 43.3543 37.1984 42.5635 37.8124 42.4789L41.5008 41.9708C41.7479 41.9368 41.9617 41.7744 42.0691 41.5393L43.6712 38.0304Z" fill="#21D37E"></path></svg>