<svg width="115" height="32" viewBox="0 0 115 32" fill="none" xmlns="http://www.w3.org/2000/svg">
<path fill-rule="evenodd" clip-rule="evenodd" d="M88.5967 0H93.4069V25.3845H88.5967V0ZM104.859 31.9926H100.129L102.855 25.4651L95.5195 7.61537H100.57L105.38 19.7435H105.541L110.311 7.61537H115.001L104.859 31.9926ZM73.5933 19.3406L69.4244 19.5017C69.7451 23.8534 73.2726 25.868 77.8824 25.868C82.4521 25.868 85.5787 23.8534 85.5787 20.227C85.5787 16.8827 83.374 15.3113 79.6461 14.7069L76.279 14.1428C74.9963 13.9413 74.3549 13.3772 74.3549 12.4102C74.3549 11.2014 75.4773 10.4359 77.2009 10.4359C79.7263 10.4359 81.0892 11.4432 81.4099 13.4578L85.3783 13.2966C85.0576 9.34794 82.1314 7.13183 77.241 7.13183C72.7515 7.13183 69.9054 9.46882 69.9054 12.8534C69.9054 16.1574 71.9899 17.5677 75.7579 18.1721L78.5638 18.6556C80.3276 18.9376 81.1293 19.4615 81.1293 20.6702C81.1293 21.9596 79.6862 22.564 77.9225 22.564C75.4773 22.564 73.8739 21.4761 73.5933 19.3406ZM51.5349 19.5017L55.7038 19.3406C55.9844 21.4761 57.5878 22.564 60.033 22.564C61.7967 22.564 63.2398 21.9596 63.2398 20.6702C63.2398 19.4615 62.4381 18.9376 60.6743 18.6556L57.8684 18.1721C54.1004 17.5677 52.0159 16.1574 52.0159 12.8534C52.0159 9.46882 54.862 7.13183 59.3515 7.13183C64.2419 7.13183 67.1681 9.34794 67.4888 13.2966L63.5204 13.4578C63.1997 11.4432 61.8368 10.4359 59.3114 10.4359C57.5878 10.4359 56.4654 11.2014 56.4654 12.4102C56.4654 13.3772 57.1068 13.9413 58.3895 14.1428L61.7566 14.7069C65.4845 15.3113 67.6892 16.8827 67.6892 20.227C67.6892 23.8534 64.5626 25.868 59.9929 25.868C55.3831 25.868 51.8556 23.8534 51.5349 19.5017ZM43.1236 17.2453V17.6886C43.1236 20.5494 41.1996 22.4834 38.6742 22.4834C37.151 22.4834 36.229 21.7582 36.229 20.5494C36.229 18.7765 37.7122 18.4138 39.7966 17.9706L43.1236 17.2453ZM47.8136 21.0732V13.9816C47.8136 9.30765 44.8072 7.13183 40.2375 7.13183C35.5476 7.13183 32.7817 9.67029 32.1804 13.2966L36.5497 13.6996C36.9505 11.967 38.0328 10.7582 40.0371 10.7582C42.0814 10.7582 43.1236 11.967 43.1236 13.9413V14.3443L38.2734 15.3113C34.2648 16.1171 31.5391 17.5274 31.5391 20.912C31.5391 23.9743 33.7838 25.8277 37.4717 25.8277C40.0772 25.8277 42.4823 24.7398 43.4844 22.6849C43.9253 24.6189 45.2081 25.7874 47.2123 25.7874C48.8157 25.7874 49.7778 25.2636 50.5394 24.6592V22.0805C50.0183 22.3222 49.5373 22.4431 49.0562 22.4431C48.2946 22.4431 47.8136 21.9999 47.8136 21.0732Z" fill="#072032"/>
<path fill-rule="evenodd" clip-rule="evenodd" d="M16.8946 10.2296L23.603 15.5045C23.7831 15.6536 27.9928 19.2671 26.9947 24.3409C26.9497 24.5867 26.6796 26.0023 25.6291 27.5073C24.5935 28.99 22.59 30.9569 17.3899 31.6051L14.5984 32L18.0277 29.5264L18.0282 29.526C18.0827 29.4856 20.9921 27.3239 21.0967 24.4973C21.1568 22.8806 20.2713 21.2861 18.4629 19.7513L12.1672 14.7595C11.732 14.4466 8.44529 11.9506 9.17316 7.18976C9.20317 6.98114 10.0061 1.92969 16.1367 0C16.1142 0.00745052 14.3583 2.8312 14.3283 5.30477C14.3058 6.30314 14.5534 7.35367 15.2663 8.45634C15.7015 9.13434 16.2568 9.73038 16.8946 10.2296ZM8.12209 17.6552C8.08289 17.8019 8.85688 20.523 9.87981 22.069C11.4 24.3664 15.3686 26.4827 15.3686 26.4827H0C0.00694786 26.4782 0.038027 26.4647 0.0906152 26.4419C0.878808 26.1003 6.49882 23.6643 8.12209 17.6552Z" fill="#FF845D"/>
</svg>
